<?xml version="1.0" encoding="utf-8"?>
<!-- Generator: Adobe Illustrator 25.0.0, SVG Export Plug-In . SVG Version: 6.00 Build 0)  -->
<svg version="1.1" id="Layer_1" xmlns="http://www.w3.org/2000/svg" xmlns:xlink="http://www.w3.org/1999/xlink" x="0px" y="0px"
	 viewBox="0 0 1600 288" style="enable-background:new 0 0 1600 288;" xml:space="preserve">
<style type="text/css">
	.st0{fill:#FFFFFF;}
</style>
<g>
	<polygon points="623.04,67.53 711.07,67.53 711.07,219.97 623.04,219.97 623.04,286.68 865.56,286.68 865.56,219.97 777.53,219.97 
		777.53,67.53 865.56,67.53 865.56,1.32 623.04,1.32 	"/>
	<path d="M913.95,1.45v285.23h179.25c45.71,0,82.77-37.06,82.77-82.77V84.22c0-45.71-37.06-82.77-82.77-82.77H913.95z
		 M980.65,219.97V67.53h125.78v152.44H980.65z"/>
	<path d="M588.03,286.68l-48.91-74.43c28.24-13.18,47.82-41.81,47.82-75.03v-53c0-45.71-37.06-82.77-82.77-82.77H324.92v285.23
		h66.71v-66.69h74.45l43.83,66.69H588.03z M391.63,67.53H517.4v85.73H391.63V67.53z"/>
	<g>
		<path d="M1.5,84.22v119.69c0,45.71,37.06,82.77,82.77,82.77h53.48v-66.71H71.04V67.65h133.42v41.84h66.71V84.22
			c0-45.71-37.06-82.77-82.77-82.77H84.27C38.56,1.45,1.5,38.5,1.5,84.22z"/>
		<polygon points="204.45,286.68 271.16,286.68 271.16,153.26 137.74,153.26 137.74,219.97 204.45,219.97 		"/>
	</g>
	<polygon points="1598.5,43.04 1598.5,1.45 1468.56,1.45 1468.56,43.04 1512.71,43.04 1512.71,110.77 1468.56,110.77 
		1468.56,152.61 1598.5,152.61 1598.5,110.77 1554.42,110.77 1554.42,43.04 	"/>
	<path d="M1400.85,152.61h46.64l-48.2-151.17h-74.7l-48.2,151.17h45.22l6.75-24.38h65.74L1400.85,152.61z M1339.89,86.64l12.08-43.6
		h18.59l12.06,43.6H1339.89z"/>
	<rect x="1205.11" y="102.4" width="50.21" height="50.21"/>
</g>
</svg>
