<svg width="13" height="14" viewBox="0 0 13 14" fill="none" xmlns="http://www.w3.org/2000/svg">
<path d="M4.78894 7.35319C4.03495 7.35319 3.42341 7.96473 3.42341 8.71873V12.1345C3.42341 12.8885 4.03495 13.5 4.78894 13.5C5.54294 13.5 6.15448 12.8885 6.15448 12.1345V8.71873C6.15394 7.96473 5.5424 7.35319 4.78894 7.35319Z" fill="#525666"/>
<path d="M0.00919648 8.7187C0.00919648 9.47324 0.621278 10.0853 1.37582 10.0853C2.13036 10.0853 2.74244 9.47324 2.74244 8.7187V7.35208H1.3769C1.37636 7.35208 1.37636 7.35208 1.37582 7.35208C0.621278 7.35208 0.00919648 7.96416 0.00919648 8.7187Z" fill="#525666"/>
<path d="M4.79045 0.5C4.78991 0.5 4.78936 0.5 4.78882 0.5C4.03428 0.5 3.4222 1.11208 3.4222 1.86662C3.4222 2.62116 4.03428 3.23324 4.78882 3.23324H6.15436C6.15436 2.45812 6.15436 2.64662 6.15436 1.86391C6.15382 1.11046 5.54336 0.5 4.79045 0.5Z" fill="#525666"/>
<path d="M1.36662 6.65923H4.78886C5.5434 6.65923 6.15548 6.04715 6.15548 5.29261C6.15548 4.53807 5.5434 3.92599 4.78886 3.92599H1.36662C0.612081 3.92599 0 4.53807 0 5.29261C0 6.04715 0.612081 6.65923 1.36662 6.65923Z" fill="#525666"/>
<path d="M11.6215 3.92558C10.868 3.92558 10.2575 4.53603 10.2575 5.28949V6.65882H11.6231C12.3776 6.65882 12.9897 6.04674 12.9897 5.2922C12.9897 4.53766 12.3776 3.92558 11.6231 3.92558C11.6225 3.92558 11.622 3.92558 11.6215 3.92558Z" fill="#525666"/>
<path d="M6.84616 1.86665V5.29268C6.84616 6.04668 7.4577 6.65822 8.2117 6.65822C8.9657 6.65822 9.57724 6.04668 9.57724 5.29268V1.86665C9.57724 1.11266 8.9657 0.501116 8.2117 0.501116C7.4577 0.501116 6.84616 1.11266 6.84616 1.86665Z" fill="#525666"/>
<path d="M9.57669 12.1333C9.57669 11.3793 8.96516 10.7678 8.21116 10.7678H6.84562V12.1344C6.84616 12.8879 7.45716 13.4989 8.21116 13.4989C8.96516 13.4989 9.57669 12.8873 9.57669 12.1333Z" fill="#525666"/>
<path d="M11.6333 7.35208H8.21102C7.45648 7.35208 6.8444 7.96416 6.8444 8.7187C6.8444 9.47324 7.45648 10.0853 8.21102 10.0853H11.6333C12.3878 10.0853 12.9999 9.47324 12.9999 8.7187C12.9999 7.96416 12.3878 7.35208 11.6333 7.35208Z" fill="#525666"/>
</svg>
